<?xml version="1.0" encoding="utf-8"?>
<!-- Generator: Adobe Illustrator 16.0.0, SVG Export Plug-In . SVG Version: 6.00 Build 0)  -->
<!DOCTYPE svg PUBLIC "-//W3C//DTD SVG 1.1//EN" "http://www.w3.org/Graphics/SVG/1.1/DTD/svg11.dtd">
<svg version="1.1" id="Layer_1" xmlns="http://www.w3.org/2000/svg" xmlns:xlink="http://www.w3.org/1999/xlink" x="0px" y="0px" width="450px" height="100px" viewBox="0 0 450 100" enable-background="new 0 0 450 100" xml:space="preserve">
	<g>
		<path fill="#ffffff" d="M335.751,14.994h4.65v1.85c0.209-0.276,0.441-0.543,0.697-0.803c0.257-0.26,0.545-0.487,0.866-0.682
		c0.32-0.195,0.673-0.353,1.058-0.475c0.385-0.122,0.81-0.183,1.274-0.183c1.42,0,2.525,0.43,3.317,1.291
		c0.791,0.86,1.188,2.045,1.188,3.555v8.619h-4.65v-7.134c0-0.73-0.169-1.282-0.505-1.655c-0.337-0.373-0.777-0.56-1.322-0.56
		c-0.561,0-1.021,0.187-1.382,0.56c-0.36,0.374-0.541,0.925-0.541,1.655v7.134h-4.65V14.994z" />
		<path fill="#ffffff" d="M357.906,28.482c-1.055,0-2.024-0.179-2.909-0.536s-1.651-0.848-2.301-1.473s-1.152-1.352-1.51-2.179
		c-0.356-0.828-0.535-1.712-0.535-2.654v-0.049c0-0.941,0.183-1.83,0.548-2.666c0.365-0.835,0.872-1.566,1.521-2.191
		c0.649-0.625,1.42-1.12,2.313-1.485c0.892-0.365,1.866-0.548,2.921-0.548c1.056,0,2.024,0.183,2.91,0.548
		c0.884,0.365,1.651,0.856,2.301,1.473c0.648,0.617,1.151,1.339,1.509,2.167c0.357,0.828,0.536,1.712,0.536,2.654v0.048
		c0,0.942-0.183,1.83-0.548,2.666c-0.365,0.836-0.873,1.566-1.521,2.191c-0.649,0.625-1.421,1.12-2.313,1.485
		S358.962,28.482,357.906,28.482z M357.955,24.538c0.422,0,0.804-0.077,1.145-0.229s0.629-0.362,0.864-0.628s0.418-0.576,0.548-0.93
		s0.195-0.724,0.195-1.111v-0.048c0-0.402-0.069-0.78-0.207-1.135c-0.139-0.354-0.333-0.664-0.585-0.93s-0.548-0.479-0.889-0.64
		s-0.714-0.242-1.12-0.242c-0.422,0-0.803,0.077-1.144,0.229s-0.63,0.362-0.864,0.628c-0.235,0.266-0.418,0.576-0.548,0.93
		c-0.131,0.354-0.195,0.725-0.195,1.11v0.048c0,0.403,0.069,0.781,0.207,1.135s0.333,0.664,0.584,0.929
		c0.252,0.266,0.548,0.479,0.889,0.64C357.177,24.458,357.55,24.538,357.955,24.538z" />
		<path fill="#ffffff" d="M374.729,18.695h-1.534v-3.628h1.534v-0.292c0-1.525,0.373-2.662,1.12-3.409
		c0.405-0.405,0.885-0.698,1.437-0.876c0.552-0.178,1.217-0.268,1.996-0.268c0.714,0,1.303,0.033,1.766,0.097
		c0.462,0.065,0.88,0.154,1.254,0.268v3.262c-0.276-0.081-0.553-0.146-0.828-0.195c-0.276-0.048-0.576-0.073-0.9-0.073
		c-0.877,0-1.315,0.414-1.315,1.242v0.316h3.02v3.555h-2.946v9.471h-4.602V18.695z" />
		<path fill="#ffffff" d="M388.145,28.458c-1.42,0-2.525-0.43-3.316-1.29c-0.792-0.86-1.188-2.045-1.188-3.555v-8.619h4.65v7.133
		c0,0.73,0.168,1.283,0.505,1.656c0.336,0.374,0.785,0.56,1.346,0.56c0.545,0,0.997-0.187,1.357-0.56
		c0.36-0.373,0.541-0.925,0.541-1.656v-7.133h4.65v13.171h-4.65v-1.802c-0.417,0.552-0.938,1.039-1.563,1.461
		C389.852,28.247,389.074,28.458,388.145,28.458z" />
		<path fill="#ffffff" d="M399.173,14.994h4.65v1.85c0.209-0.276,0.441-0.543,0.697-0.803c0.257-0.26,0.545-0.487,0.866-0.682
		c0.32-0.195,0.673-0.353,1.058-0.475c0.385-0.122,0.81-0.183,1.274-0.183c1.42,0,2.525,0.43,3.317,1.291
		c0.791,0.86,1.188,2.045,1.188,3.555v8.619h-4.65v-7.134c0-0.73-0.169-1.282-0.505-1.655c-0.337-0.373-0.777-0.56-1.322-0.56
		c-0.561,0-1.021,0.187-1.382,0.56c-0.36,0.374-0.541,0.925-0.541,1.655v7.134h-4.65V14.994z" />
		<path fill="#3FA9F5" d="M340.986,57.674c-1.12,0-2.208-0.158-3.263-0.475c-1.056-0.316-2.045-0.808-2.971-1.473l1.729-2.8
		c0.763,0.503,1.538,0.88,2.325,1.132s1.522,0.377,2.204,0.377c0.778,0,1.168-0.234,1.168-0.706v-0.049
		c0-0.259-0.179-0.462-0.535-0.608c-0.357-0.146-0.885-0.316-1.583-0.511c-0.649-0.162-1.258-0.354-1.826-0.572
		c-0.568-0.22-1.063-0.487-1.484-0.804c-0.423-0.316-0.755-0.702-0.999-1.156c-0.243-0.455-0.364-1.014-0.364-1.68V48.3
		c0-0.697,0.134-1.318,0.401-1.862c0.268-0.543,0.637-0.998,1.107-1.363s1.026-0.646,1.668-0.84
		c0.641-0.195,1.343-0.292,2.106-0.292c0.974,0,1.931,0.134,2.872,0.402c0.941,0.268,1.794,0.645,2.557,1.132l-1.582,2.922
		c-0.682-0.373-1.372-0.669-2.069-0.889c-0.698-0.219-1.308-0.329-1.826-0.329c-0.357,0-0.625,0.061-0.804,0.183
		c-0.179,0.122-0.268,0.272-0.268,0.45v0.049c0,0.26,0.183,0.467,0.548,0.621c0.365,0.155,0.896,0.337,1.595,0.548
		c0.648,0.179,1.257,0.377,1.825,0.597s1.063,0.487,1.485,0.803c0.422,0.317,0.755,0.702,0.998,1.157
		c0.244,0.454,0.365,0.998,0.365,1.631v0.049c0,0.73-0.13,1.367-0.389,1.911c-0.261,0.544-0.626,1.002-1.096,1.375
		c-0.472,0.374-1.039,0.654-1.705,0.84C342.512,57.58,341.781,57.674,340.986,57.674z" />
		<path fill="#3FA9F5" d="M353.522,57.649c-1.403,0-2.496-0.332-3.279-0.998c-0.783-0.665-1.175-1.785-1.175-3.359v-5.356h-1.558
		V44.21h1.558v-3.335h4.65v3.335h3.067v3.725h-3.067v4.455c0,0.471,0.105,0.808,0.316,1.011s0.527,0.304,0.949,0.304
		c0.309,0,0.609-0.04,0.901-0.121s0.576-0.187,0.852-0.316v3.627c-0.422,0.228-0.9,0.41-1.436,0.548
		C354.766,57.58,354.173,57.649,353.522,57.649z" />
		<path fill="#3FA9F5" d="M362.533,57.674c-0.633,0-1.218-0.089-1.753-0.268c-0.536-0.179-1.003-0.438-1.4-0.779
		s-0.71-0.763-0.938-1.266s-0.341-1.088-0.341-1.753V53.56c0-0.682,0.126-1.282,0.378-1.802c0.251-0.52,0.6-0.95,1.047-1.291
		c0.446-0.341,0.986-0.6,1.619-0.779s1.339-0.268,2.118-0.268c0.616,0,1.205,0.053,1.765,0.158c0.561,0.106,1.026,0.224,1.4,0.353
		v-0.219c0-0.682-0.216-1.208-0.646-1.583c-0.43-0.373-1.092-0.56-1.984-0.56c-0.698,0-1.331,0.065-1.898,0.195
		c-0.568,0.13-1.145,0.308-1.729,0.535l-0.949-3.262c0.746-0.308,1.538-0.556,2.374-0.743c0.836-0.187,1.821-0.28,2.958-0.28
		c1.185,0,2.188,0.138,3.007,0.414c0.819,0.276,1.489,0.674,2.009,1.193c0.503,0.487,0.864,1.075,1.083,1.765
		c0.22,0.69,0.329,1.497,0.329,2.422v7.572h-4.577v-1.363c-0.455,0.503-0.994,0.905-1.619,1.205S363.409,57.674,362.533,57.674z
		 M364.188,54.776c0.682,0,1.233-0.194,1.655-0.584s0.634-0.917,0.634-1.582v-0.609c-0.228-0.097-0.499-0.179-0.816-0.243
		c-0.316-0.064-0.645-0.098-0.985-0.098c-0.682,0-1.205,0.15-1.57,0.451c-0.365,0.3-0.548,0.693-0.548,1.181v0.048
		c0,0.455,0.153,0.808,0.462,1.06S363.718,54.776,364.188,54.776z" />
		<path fill="#3FA9F5" d="M373.342,44.21h4.65v1.85c0.209-0.276,0.441-0.543,0.697-0.803c0.257-0.26,0.545-0.487,0.866-0.682
		c0.32-0.195,0.673-0.353,1.058-0.475c0.385-0.122,0.81-0.183,1.274-0.183c1.42,0,2.525,0.43,3.317,1.291
		c0.791,0.86,1.188,2.045,1.188,3.555v8.619h-4.65v-7.134c0-0.73-0.169-1.282-0.505-1.655c-0.337-0.373-0.777-0.56-1.322-0.56
		c-0.561,0-1.021,0.187-1.382,0.56c-0.36,0.374-0.541,0.925-0.541,1.655v7.134h-4.65V44.21z" />
		<path fill="#3FA9F5" d="M394.109,57.674c-0.778,0-1.521-0.158-2.228-0.475s-1.323-0.767-1.851-1.352
		c-0.527-0.584-0.949-1.298-1.266-2.143c-0.316-0.844-0.475-1.793-0.475-2.848v-0.049c0-1.071,0.153-2.033,0.461-2.885
		c0.308-0.853,0.729-1.574,1.264-2.167c0.534-0.592,1.149-1.047,1.846-1.363c0.696-0.317,1.433-0.475,2.21-0.475
		c0.987,0,1.797,0.191,2.429,0.572c0.631,0.381,1.165,0.824,1.603,1.327v-6.208h4.65v17.773h-4.65l0.024-1.753
		c-0.455,0.552-0.99,1.031-1.606,1.437C395.903,57.471,395.1,57.674,394.109,57.674z M395.51,53.803
		c0.371,0,0.719-0.073,1.042-0.219c0.323-0.146,0.605-0.354,0.849-0.621c0.242-0.268,0.432-0.584,0.569-0.949
		c0.137-0.365,0.206-0.768,0.206-1.206V50.76c0-0.438-0.069-0.836-0.206-1.193c-0.138-0.356-0.327-0.669-0.569-0.937
		c-0.243-0.268-0.525-0.475-0.849-0.621s-0.671-0.219-1.042-0.219c-0.372,0-0.719,0.073-1.042,0.219
		c-0.324,0.146-0.606,0.349-0.849,0.609s-0.437,0.572-0.582,0.937s-0.218,0.767-0.218,1.206v0.048c0,0.438,0.072,0.84,0.218,1.206
		s0.34,0.682,0.582,0.949s0.524,0.475,0.849,0.621C394.791,53.729,395.138,53.803,395.51,53.803z" />
		<path fill="#3FA9F5" d="M405.235,39.609h4.846v3.408h-4.846V39.609z M405.333,44.21h4.65v13.171h-4.65V44.21z" />
		<path fill="#3FA9F5" d="M412.539,44.21h4.65v1.85c0.209-0.276,0.441-0.543,0.697-0.803c0.257-0.26,0.545-0.487,0.866-0.682
		c0.32-0.195,0.673-0.353,1.058-0.475c0.385-0.122,0.81-0.183,1.274-0.183c1.42,0,2.525,0.43,3.317,1.291
		c0.791,0.86,1.188,2.045,1.188,3.555v8.619h-4.65v-7.134c0-0.73-0.169-1.282-0.505-1.655c-0.337-0.373-0.777-0.56-1.322-0.56
		c-0.561,0-1.021,0.187-1.382,0.56c-0.36,0.374-0.541,0.925-0.541,1.655v7.134h-4.65V44.21z" />
		<path fill="#3FA9F5" d="M434.451,61.326c-1.282,0-2.463-0.13-3.542-0.39c-1.08-0.26-2.099-0.633-3.056-1.12l1.485-3.067
		c0.714,0.39,1.437,0.693,2.166,0.913c0.73,0.219,1.542,0.328,2.436,0.328c1.168,0,2.036-0.276,2.604-0.827
		c0.568-0.552,0.853-1.355,0.853-2.411v-0.511c-0.471,0.535-1.022,0.998-1.656,1.388c-0.633,0.39-1.436,0.584-2.41,0.584
		c-0.812,0-1.57-0.142-2.276-0.426s-1.323-0.689-1.851-1.218c-0.527-0.526-0.945-1.168-1.253-1.923
		c-0.309-0.755-0.463-1.603-0.463-2.544v-0.048c0-0.941,0.154-1.793,0.463-2.557c0.308-0.763,0.722-1.408,1.241-1.936
		c0.52-0.527,1.124-0.933,1.813-1.217c0.69-0.284,1.416-0.426,2.18-0.426c0.989,0,1.802,0.179,2.435,0.536
		c0.633,0.357,1.201,0.795,1.704,1.315V44.21h4.626v10.006c0,1.218-0.139,2.252-0.414,3.104c-0.276,0.852-0.706,1.57-1.29,2.154
		c-0.601,0.601-1.372,1.06-2.313,1.376S435.831,61.326,434.451,61.326z M434.719,52.658c0.779,0,1.421-0.243,1.924-0.73
		c0.503-0.486,0.755-1.095,0.755-1.826v-0.048c0-0.73-0.252-1.335-0.755-1.814c-0.503-0.479-1.145-0.718-1.924-0.718
		c-0.795,0-1.444,0.244-1.947,0.73s-0.755,1.096-0.755,1.826v0.049c0,0.73,0.252,1.335,0.755,1.814S433.924,52.658,434.719,52.658z" />
		<path fill="#ffffff" stroke="#ffffff" stroke-width="0.25" d="M340.986,86.89c-1.12,0-2.208-0.158-3.263-0.475
		c-1.056-0.316-2.045-0.808-2.971-1.473l1.729-2.8c0.763,0.503,1.538,0.88,2.325,1.132s1.522,0.377,2.204,0.377
		c0.778,0,1.168-0.234,1.168-0.706v-0.049c0-0.259-0.179-0.462-0.535-0.608c-0.357-0.146-0.885-0.316-1.583-0.511
		c-0.649-0.162-1.258-0.354-1.826-0.572c-0.568-0.22-1.063-0.487-1.484-0.804c-0.423-0.316-0.755-0.702-0.999-1.156
		c-0.243-0.454-0.364-1.015-0.364-1.68v-0.049c0-0.698,0.134-1.318,0.401-1.862s0.637-0.999,1.107-1.364s1.026-0.645,1.668-0.84
		c0.641-0.194,1.343-0.292,2.106-0.292c0.974,0,1.931,0.134,2.872,0.401c0.941,0.269,1.794,0.646,2.557,1.133l-1.582,2.921
		c-0.682-0.373-1.372-0.669-2.069-0.889c-0.698-0.219-1.308-0.328-1.826-0.328c-0.357,0-0.625,0.061-0.804,0.183
		s-0.268,0.271-0.268,0.45v0.049c0,0.26,0.183,0.467,0.548,0.621s0.896,0.337,1.595,0.548c0.648,0.179,1.257,0.377,1.825,0.596
		c0.568,0.22,1.063,0.487,1.485,0.804s0.755,0.702,0.998,1.156c0.244,0.455,0.365,0.999,0.365,1.632v0.049
		c0,0.73-0.13,1.367-0.389,1.911c-0.261,0.544-0.626,1.002-1.096,1.375c-0.472,0.374-1.039,0.654-1.705,0.84
		C342.512,86.796,341.781,86.89,340.986,86.89z" />
		<path fill="#ffffff" stroke="#ffffff" stroke-width="0.25" d="M353.522,86.865c-1.403,0-2.496-0.332-3.279-0.998
		c-0.783-0.665-1.175-1.785-1.175-3.359v-5.356h-1.558v-3.726h1.558v-3.335h4.65v3.335h3.067v3.726h-3.067v4.455
		c0,0.471,0.105,0.808,0.316,1.011s0.527,0.304,0.949,0.304c0.309,0,0.609-0.04,0.901-0.121s0.576-0.187,0.852-0.316v3.627
		c-0.422,0.228-0.9,0.41-1.436,0.548C354.766,86.796,354.173,86.865,353.522,86.865z" />
		<path fill="#ffffff" stroke="#ffffff" stroke-width="0.25" d="M358.759,68.824h4.846v3.409h-4.846V68.824z M358.856,73.426h4.65
		v13.172h-4.65V73.426z" />
		<path fill="#ffffff" stroke="#ffffff" stroke-width="0.25" d="M366.16,68.824h4.65v17.773h-4.65V68.824z" />
		<path fill="#ffffff" stroke="#ffffff" stroke-width="0.25" d="M373.464,68.824h4.65v17.773h-4.65V68.824z" />
		<path fill="#ffffff" stroke="#ffffff" stroke-width="0.25" d="M380.476,81.85h4.82v4.748h-4.82V81.85z" />
	</g>
	<g>
		<path fill="#00ADEF" d="M193.914,71.438h2.527l0.679-2.5h-2.538L193.914,71.438z M202.339,65.448
		c0.239-0.271,0.521-0.491,0.846-0.653c0.325-0.163,0.675-0.242,1.052-0.242c0.444,0,0.813,0.099,1.101,0.302
		c0.292,0.199,0.526,0.484,0.707,0.851l2.155-1.152c-0.274-0.691-0.719-1.247-1.334-1.655c-0.615-0.411-1.386-0.616-2.309-0.616
		c-0.863,0-1.641,0.159-2.334,0.476c-0.692,0.313-1.279,0.729-1.764,1.237c-0.482,0.508-0.854,1.086-1.114,1.73
		c-0.262,0.646-0.391,1.302-0.391,1.971c0,0.597,0.104,1.138,0.314,1.619c0.208,0.485,0.501,0.897,0.878,1.237
		c0.377,0.343,0.823,0.607,1.341,0.791c0.516,0.183,1.088,0.276,1.712,0.276c0.855,0,1.585-0.158,2.192-0.469
		c0.608-0.313,1.128-0.717,1.564-1.211l-1.679-1.488c-0.291,0.29-0.585,0.514-0.886,0.673c-0.298,0.157-0.646,0.236-1.039,0.236
		c-0.52,0-0.949-0.162-1.289-0.492c-0.337-0.329-0.505-0.78-0.505-1.354c0-0.393,0.071-0.768,0.21-1.122
		C201.909,66.037,202.101,65.724,202.339,65.448 M227.576,62.462l-3.053,3.475l-1.191-3.475h-2.514l-2.411,8.977h2.46l1.373-5.13
		l1.323,3.489h0.049l3.219-3.515l-1.373,5.155h2.501l2.413-8.977H227.576z M216.997,63.449c-0.377-0.36-0.829-0.64-1.354-0.846
		c-0.525-0.206-1.108-0.308-1.751-0.308c-0.777,0-1.493,0.147-2.147,0.442c-0.653,0.293-1.219,0.687-1.693,1.173
		c-0.475,0.486-0.844,1.048-1.108,1.686c-0.266,0.637-0.398,1.297-0.398,1.98c0,0.575,0.102,1.108,0.308,1.599
		c0.206,0.492,0.496,0.917,0.873,1.276c0.375,0.356,0.827,0.64,1.353,0.846c0.524,0.205,1.109,0.308,1.75,0.308
		c0.778,0,1.493-0.148,2.147-0.442c0.654-0.295,1.22-0.688,1.694-1.176c0.475-0.483,0.843-1.047,1.108-1.683
		c0.265-0.637,0.399-1.298,0.399-1.981c0-0.573-0.104-1.106-0.308-1.599C217.665,64.234,217.374,63.809,216.997,63.449
		 M215.439,67.521c-0.124,0.336-0.297,0.644-0.515,0.92c-0.222,0.281-0.493,0.505-0.812,0.677c-0.318,0.17-0.673,0.257-1.063,0.257
		c-0.314,0-0.593-0.051-0.835-0.148c-0.242-0.098-0.446-0.238-0.612-0.418c-0.166-0.179-0.291-0.391-0.375-0.634
		c-0.086-0.244-0.128-0.507-0.128-0.79c0-0.333,0.062-0.668,0.186-1.006c0.123-0.336,0.296-0.646,0.522-0.924
		c0.227-0.275,0.495-0.501,0.809-0.673c0.316-0.172,0.668-0.257,1.059-0.257c0.314,0,0.592,0.05,0.836,0.149
		c0.242,0.098,0.445,0.237,0.611,0.414c0.167,0.182,0.292,0.395,0.377,0.636c0.085,0.242,0.129,0.508,0.129,0.788
		C215.626,66.849,215.563,67.185,215.439,67.521 M13.603,30.017c0.018-0.024,0.036-0.049,0.053-0.072
		C13.657,29.944,13.637,29.97,13.603,30.017 M37.75,80.043c-9.761-0.28-18.718-3.43-24.569-9.003
		c-0.975-0.87-1.822-1.832-2.601-2.821c-0.206-0.258-0.403-0.517-0.595-0.775l-0.006-0.008c-0.382-0.521-0.738-1.047-1.066-1.577
		c-0.023-0.038-0.047-0.076-0.069-0.115c-0.095-0.155-0.188-0.311-0.279-0.467c-0.067-0.113-0.134-0.231-0.199-0.346
		c-8.458-15.073,3.526-32.544,5.116-34.747c-1.43,1.873-2.98,4.381-4.218,6.518c0.292-0.515,0.538-0.952,0.738-1.303
		c0.412-0.728,0.625-1.103,0.625-1.103s-0.232,0.364-0.679,1.065c-0.226,0.35-0.503,0.788-0.834,1.306
		C8.801,37.2,8.47,37.834,8.079,38.544c-0.379,0.704-0.772,1.507-1.165,2.41l-0.002,0.002c-0.403,0.927-0.812,1.96-1.207,3.097
		c-0.72,2.261-1.379,4.953-1.544,8.052c-0.17,3.088,0.178,6.588,1.4,10.146c0.566,1.8,1.467,3.545,2.487,5.291
		c1.113,1.678,2.344,3.387,3.891,4.877c2.998,3.091,6.895,5.56,11.271,7.35c4.38,1.82,9.293,2.759,14.413,3.109
		c5.144,0.324,10.454-0.019,15.961-0.999c1.328-0.271,2.668-0.543,4.02-0.815c0.313-0.06,1.359-0.355,2.479-0.67
		c1.599-0.41,3.385-0.884,4.961-1.304c2.372-0.635,4.256-1.147,4.256-1.147l0.126-0.052l0.965-3.606
		c-7.302,1.414-14.888,3.594-14.942,3.608C44.078,80.411,37.75,80.043,37.75,80.043" />
	</g>
	<g>
		<path fill="#ffffff" d="M35.012,38.847c-1.189-0.547-2.558-0.822-4.104-0.822c-1.076,0-2.056,0.146-2.942,0.44
		c-0.888,0.292-1.654,0.694-2.306,1.203c-0.651,0.51-1.156,1.119-1.515,1.828c-0.355,0.709-0.536,1.47-0.536,2.282
		c0,0.642,0.112,1.214,0.34,1.713c0.225,0.502,0.567,0.955,1.018,1.359c0.454,0.409,1.02,0.791,1.698,1.148
		c0.679,0.36,1.472,0.72,2.377,1.077c0.753,0.303,1.396,0.591,1.923,0.864c0.528,0.273,0.947,0.554,1.258,0.837
		c0.312,0.283,0.538,0.581,0.68,0.894c0.141,0.312,0.213,0.655,0.213,1.033c0,0.546-0.129,1.047-0.383,1.5
		c-0.254,0.454-0.604,0.842-1.046,1.163c-0.444,0.322-0.973,0.576-1.583,0.766c-0.615,0.188-1.281,0.282-1.996,0.282
		c-1.472,0-2.717-0.258-3.734-0.779c-1.019-0.518-1.953-1.285-2.801-2.303l-1.698,1.328c0.85,1.188,1.953,2.108,3.309,2.759
		c1.358,0.649,2.952,0.974,4.782,0.974c1.056,0,2.041-0.149,2.958-0.451c0.913-0.305,1.706-0.719,2.376-1.249
		c0.669-0.526,1.196-1.16,1.583-1.896c0.387-0.736,0.58-1.541,0.58-2.408c0-0.644-0.109-1.216-0.325-1.715
		c-0.217-0.501-0.538-0.958-0.962-1.375c-0.422-0.414-0.957-0.798-1.597-1.146c-0.642-0.349-1.387-0.686-2.237-1.006
		c-0.772-0.304-1.438-0.586-1.993-0.85c-0.557-0.265-1.014-0.538-1.373-0.82c-0.358-0.285-0.618-0.588-0.776-0.909
		c-0.161-0.32-0.241-0.68-0.241-1.078c0-0.451,0.108-0.887,0.326-1.302c0.215-0.415,0.527-0.788,0.933-1.119
		c0.405-0.331,0.904-0.591,1.499-0.779c0.592-0.188,1.258-0.285,1.995-0.285c1.169,0,2.209,0.214,3.126,0.639
		c0.914,0.423,1.729,1.032,2.446,1.824l1.641-1.472C37.168,40.111,36.199,39.396,35.012,38.847 M55.061,40.146
		c-1.245-1.225-3.131-1.838-5.658-1.838h-6.195l-5.318,19.801h2.235l1.895-7.044h4.695c1.452,0,2.778-0.159,3.975-0.479
		c1.197-0.321,2.224-0.791,3.083-1.416c0.859-0.621,1.522-1.38,1.995-2.276c0.471-0.895,0.708-1.918,0.708-3.07
		c0-0.772-0.124-1.46-0.369-2.065C55.862,41.156,55.514,40.619,55.061,40.146 M52.29,47.757c-1.265,0.886-3.076,1.329-5.433,1.329
		h-4.271l2.318-8.712h4.441c1.793,0,3.104,0.415,3.934,1.244c0.604,0.604,0.905,1.386,0.905,2.348
		C54.184,45.606,53.552,46.871,52.29,47.757 M83.931,50.415h5.375l3.905,7.694h2.574l-4.073-7.916
		c1.13-0.15,2.172-0.424,3.125-0.822c0.952-0.396,1.74-0.904,2.362-1.527c0.546-0.565,0.976-1.206,1.287-1.924
		c0.312-0.717,0.467-1.508,0.467-2.376c0-1.378-0.435-2.52-1.301-3.424c-1.245-1.208-3.103-1.812-5.574-1.812h-7.129L79.63,58.109
		h2.236L83.931,50.415z M86.646,40.374h5.319c0.942,0,1.729,0.104,2.362,0.311c0.631,0.209,1.136,0.501,1.514,0.881
		c0.546,0.548,0.82,1.267,0.82,2.157c0,0.587-0.103,1.117-0.312,1.589c-0.207,0.475-0.499,0.908-0.876,1.306
		c-0.547,0.547-1.297,0.988-2.25,1.32c-0.953,0.331-2.08,0.498-3.38,0.498h-5.375L86.646,40.374z M77.762,50.996
		c0.596-1.443,0.891-2.93,0.891-4.455c0-1.208-0.212-2.331-0.635-3.368c-0.424-1.036-1.02-1.942-1.783-2.715
		c-0.765-0.772-1.679-1.381-2.744-1.824c-1.064-0.444-2.24-0.666-3.521-0.666c-1.641,0-3.164,0.335-4.571,1.004
		c-1.403,0.669-2.62,1.557-3.648,2.661c-1.027,1.104-1.838,2.372-2.433,3.805c-0.594,1.432-0.892,2.912-0.892,4.441
		c0,1.207,0.212,2.333,0.636,3.379c0.426,1.05,1.02,1.956,1.783,2.733c0.762,0.771,1.677,1.379,2.744,1.822
		c1.066,0.442,2.238,0.665,3.521,0.665c1.642,0,3.164-0.335,4.57-1.004c1.403-0.67,2.619-1.558,3.647-2.659
		C76.359,53.711,77.17,52.438,77.762,50.996 M70.861,55.579c-1.104,0.555-2.306,0.833-3.607,0.833c-1,0-1.896-0.167-2.688-0.508
		c-0.791-0.338-1.47-0.802-2.036-1.388c-0.566-0.583-1.001-1.277-1.3-2.079c-0.303-0.801-0.453-1.674-0.453-2.615
		c0-1.227,0.231-2.429,0.692-3.609c0.463-1.178,1.094-2.224,1.896-3.138c0.801-0.915,1.754-1.651,2.857-2.208
		c1.104-0.556,2.306-0.834,3.608-0.834c0.979,0,1.872,0.17,2.671,0.508c0.802,0.342,1.487,0.802,2.052,1.388
		c0.567,0.583,0.999,1.283,1.302,2.092c0.302,0.811,0.453,1.679,0.453,2.604c0,1.226-0.231,2.43-0.694,3.607
		c-0.46,1.178-1.094,2.224-1.896,3.138C72.916,54.287,71.963,55.021,70.861,55.579 M103.146,58.109h2.237l4.75-17.736h6.678
		l0.566-2.066h-15.588l-0.564,2.066h6.675L103.146,58.109z M127.178,55.365c-0.443,0.322-0.971,0.576-1.583,0.766
		c-0.615,0.188-1.281,0.282-1.996,0.282c-1.471,0-2.716-0.258-3.733-0.779c-1.021-0.518-1.953-1.285-2.803-2.303l-1.697,1.328
		c0.85,1.188,1.953,2.108,3.31,2.759c1.358,0.649,2.954,0.974,4.782,0.974c1.056,0,2.041-0.149,2.957-0.451
		c0.915-0.305,1.707-0.719,2.376-1.249c0.669-0.526,1.197-1.16,1.583-1.896c0.386-0.736,0.58-1.541,0.58-2.408
		c0-0.644-0.11-1.216-0.327-1.715c-0.216-0.501-0.537-0.958-0.961-1.375c-0.422-0.414-0.956-0.798-1.597-1.146
		c-0.642-0.349-1.387-0.686-2.236-1.006c-0.772-0.304-1.438-0.586-1.993-0.85c-0.557-0.265-1.014-0.538-1.374-0.82
		c-0.356-0.285-0.617-0.588-0.775-0.909c-0.161-0.32-0.242-0.68-0.242-1.078c0-0.451,0.11-0.887,0.326-1.302
		c0.215-0.415,0.527-0.788,0.933-1.119c0.406-0.331,0.905-0.591,1.499-0.779c0.593-0.188,1.259-0.285,1.995-0.285
		c1.169,0,2.209,0.214,3.125,0.639c0.915,0.423,1.729,1.032,2.447,1.824l1.641-1.472c-0.756-0.883-1.725-1.598-2.913-2.148
		c-1.19-0.546-2.558-0.822-4.104-0.822c-1.075,0-2.055,0.146-2.941,0.44c-0.887,0.292-1.654,0.694-2.304,1.203
		c-0.653,0.51-1.159,1.119-1.515,1.828c-0.358,0.709-0.538,1.47-0.538,2.282c0,0.642,0.112,1.214,0.341,1.713
		c0.225,0.502,0.565,0.955,1.017,1.359c0.454,0.409,1.019,0.791,1.698,1.148c0.679,0.36,1.471,0.72,2.376,1.077
		c0.753,0.303,1.396,0.591,1.922,0.864c0.529,0.273,0.948,0.554,1.261,0.837c0.311,0.283,0.537,0.581,0.678,0.894
		c0.143,0.312,0.213,0.655,0.213,1.033c0,0.546-0.129,1.047-0.383,1.5C127.97,54.656,127.621,55.044,127.178,55.365 M137.708,48.082
		c0.441,0.424,0.979,0.803,1.612,1.131c0.632,0.331,1.345,0.646,2.137,0.949c0.697,0.265,1.258,0.493,1.684,0.692
		c0.422,0.196,0.757,0.376,1.005,0.536c0.244,0.162,0.408,0.323,0.493,0.482c0.086,0.161,0.128,0.333,0.128,0.523
		c0,0.453-0.209,0.811-0.621,1.074c-0.417,0.264-0.953,0.396-1.613,0.396c-2.133,0-4.169-0.896-6.11-2.688l-3.537,3.648
		c1.075,1.151,2.391,2.042,3.945,2.674c1.558,0.633,3.306,0.949,5.249,0.949c1.227,0,2.356-0.164,3.395-0.495
		c1.037-0.33,1.928-0.798,2.672-1.403c0.746-0.602,1.325-1.324,1.74-2.161c0.416-0.84,0.622-1.77,0.622-2.786
		c0-0.738-0.126-1.389-0.38-1.953c-0.254-0.566-0.608-1.061-1.062-1.486c-0.453-0.423-0.994-0.806-1.625-1.145
		c-0.633-0.34-1.326-0.65-2.08-0.933c-0.679-0.263-1.235-0.492-1.669-0.679c-0.435-0.19-0.77-0.359-1.004-0.509
		c-0.235-0.152-0.401-0.298-0.496-0.44c-0.093-0.141-0.142-0.314-0.142-0.522c0-0.396,0.193-0.73,0.581-1.003
		c0.386-0.274,0.91-0.412,1.569-0.412c1.02,0,1.957,0.199,2.816,0.595c0.857,0.395,1.663,0.924,2.417,1.583l3.395-3.791
		c-0.962-0.905-2.117-1.621-3.465-2.15c-1.348-0.528-2.9-0.792-4.654-0.792c-1.207,0-2.324,0.166-3.351,0.496
		c-1.029,0.328-1.914,0.792-2.658,1.386c-0.746,0.593-1.332,1.304-1.754,2.135c-0.425,0.83-0.638,1.735-0.638,2.715
		c0,0.737,0.124,1.377,0.369,1.925C136.92,47.173,137.266,47.659,137.708,48.082 M156.761,38.308l-5.317,19.801h5.514l2.011-7.523
		h6.986l-2.037,7.523h5.517l5.317-19.801h-5.516l-1.98,7.412h-6.988l2.009-7.412H156.761z M180.743,57.8
		c1.161,0.452,2.449,0.679,3.862,0.679c1.716,0,3.295-0.325,4.738-0.976c1.445-0.65,2.69-1.512,3.736-2.588
		c1.046-1.077,1.862-2.315,2.446-3.722c0.583-1.404,0.878-2.861,0.878-4.369c0-1.265-0.227-2.439-0.68-3.522
		c-0.452-1.086-1.092-2.022-1.923-2.815c-0.83-0.792-1.825-1.415-2.983-1.868c-1.162-0.452-2.449-0.679-3.862-0.679
		c-1.718,0-3.295,0.326-4.74,0.977c-1.442,0.651-2.687,1.513-3.734,2.588c-1.046,1.075-1.862,2.316-2.446,3.72
		c-0.585,1.406-0.877,2.861-0.877,4.371c0,1.264,0.227,2.437,0.678,3.521c0.453,1.086,1.094,2.024,1.925,2.817
		C178.589,56.724,179.584,57.346,180.743,57.8 M181.194,46.951c0.272-0.746,0.656-1.424,1.154-2.038
		c0.495-0.611,1.091-1.106,1.784-1.484c0.694-0.376,1.472-0.566,2.335-0.566c0.694,0,1.308,0.109,1.841,0.325
		c0.537,0.218,0.986,0.524,1.352,0.92c0.366,0.396,0.642,0.863,0.83,1.4c0.188,0.537,0.281,1.117,0.281,1.739
		c0,0.735-0.136,1.475-0.406,2.22c-0.272,0.745-0.653,1.425-1.141,2.036c-0.488,0.614-1.083,1.109-1.788,1.485
		c-0.701,0.379-1.486,0.567-2.346,0.567c-0.694,0-1.31-0.11-1.844-0.327c-0.533-0.216-0.983-0.522-1.35-0.918
		c-0.365-0.396-0.643-0.862-0.83-1.4s-0.281-1.116-0.281-1.74C180.785,48.437,180.919,47.695,181.194,46.951 M196.831,58.109h16.013
		l1.244-4.665h-10.58l0.85-3.142h9.447l1.161-4.328h-9.449l0.821-3h10.409l1.273-4.667h-15.87L196.831,58.109z M227.193,53.471
		c-0.415,0.264-0.952,0.396-1.612,0.396c-2.134,0-4.168-0.896-6.111-2.688l-3.536,3.648c1.075,1.151,2.39,2.042,3.947,2.674
		c1.556,0.633,3.303,0.949,5.247,0.949c1.226,0,2.355-0.164,3.396-0.495c1.036-0.33,1.927-0.798,2.673-1.403
		c0.745-0.602,1.324-1.324,1.74-2.161c0.414-0.84,0.62-1.77,0.62-2.786c0-0.738-0.125-1.389-0.38-1.953
		c-0.254-0.566-0.609-1.061-1.062-1.486c-0.452-0.423-0.995-0.806-1.627-1.145c-0.631-0.34-1.325-0.65-2.078-0.933
		c-0.68-0.263-1.236-0.492-1.669-0.679c-0.436-0.19-0.771-0.359-1.005-0.509c-0.236-0.152-0.4-0.298-0.496-0.44
		c-0.094-0.141-0.141-0.314-0.141-0.522c0-0.396,0.192-0.73,0.581-1.003c0.386-0.274,0.908-0.412,1.568-0.412
		c1.019,0,1.956,0.199,2.815,0.595c0.859,0.395,1.663,0.924,2.418,1.583l3.396-3.791c-0.963-0.905-2.118-1.621-3.464-2.15
		c-1.351-0.528-2.902-0.792-4.654-0.792c-1.209,0-2.326,0.166-3.354,0.496c-1.029,0.328-1.916,0.792-2.658,1.386
		c-0.748,0.593-1.33,1.304-1.754,2.135c-0.424,0.83-0.637,1.735-0.637,2.715c0,0.737,0.123,1.377,0.368,1.925
		c0.244,0.547,0.588,1.033,1.032,1.456c0.444,0.424,0.98,0.803,1.612,1.131c0.631,0.331,1.345,0.646,2.136,0.949
		c0.698,0.265,1.259,0.493,1.684,0.692c0.423,0.196,0.759,0.376,1.004,0.536c0.246,0.162,0.409,0.323,0.493,0.482
		c0.086,0.161,0.128,0.333,0.128,0.523C227.814,52.85,227.607,53.207,227.193,53.471 M260.655,48.098
		c-0.707-3.619-2.155-6.931-3.862-9.937c-0.401-0.764-0.914-1.496-1.369-2.238c-0.471-0.741-0.938-1.349-1.404-2.025
		c-1.068-1.395-2.114-2.621-3.166-3.922c-1.087-1.241-2.286-2.365-3.414-3.538c-1.161-1.135-2.444-2.114-3.648-3.161
		c-5.01-3.968-10.492-6.888-15.999-8.945c-5.516-2.057-11.04-3.313-16.368-4.087c-5.331-0.786-10.479-1.035-15.355-0.999
		c-4.878,0.033-9.492,0.333-13.8,0.821c-8.626,0.904-16.029,2.486-22.063,3.942c-6.036,1.484-10.698,2.957-13.854,4.016
		c-3.154,1.064-4.807,1.72-4.807,1.72s1.683-0.563,4.885-1.447c3.197-0.894,7.927-2.05,13.984-3.269
		c3.032-0.581,6.397-1.195,10.079-1.693c3.681-0.516,7.668-0.987,11.941-1.27c4.27-0.317,8.826-0.439,13.607-0.285
		c4.78,0.146,9.802,0.514,14.949,1.442c5.142,0.906,10.423,2.28,15.613,4.395c4.311,1.75,8.559,4.017,12.505,6.911
		c3.303,2.595,33.763,27.79,3.81,51.645c-32.006,24.696-70.164,14.522-81.343,10.557c-1.239-0.497-2.457-0.976-3.651-1.436
		c-0.004,0-0.012-0.005-0.012-0.005l0.001,0.002c-17.637-6.797-30.362-9.759-37.116-11c-3.03-0.515-6.06-0.934-9.074-1.269h0.025
		c-0.119-0.016-0.234-0.022-0.353-0.038c-1.023-0.113-2.044-0.217-3.064-0.312c-0.204-0.014-0.407-0.026-0.609-0.041
		c-13.478-1.149-24.059-0.348-31.02,0.655c-0.371,0.042-0.761,0.09-1.148,0.14l-0.891,3.329c14.156-2.626,41.554-4.14,82.414,12.345
		l0.001-0.006l5.764,2.343c9.602,3.432,30.057,8.816,52.54,2.951c1.252-0.329,2.498-0.675,3.735-1.047
		c10.148-3.213,20.231-7.463,31.856-17.595c1.91-1.902,3.677-3.979,5.188-6.267c1.038-1.532,1.945-3.169,2.695-4.891
		c0.766-1.708,1.37-3.508,1.759-5.354C261.438,55.553,261.409,51.688,260.655,48.098" />
	</g>
	<g>
		<polyline fill="#ffffff" points="298.614,8.016 298.614,95.982 301.309,95.982 301.309,8.016 	" />
	</g>
</svg>